<svg
  width="21"
  height="20"
  viewBox="0 0 21 20"
  fill="none"
  xmlns="http://www.w3.org/2000/svg"
>
  <path
    d="M10.7797 0C8.81013 0 6.88475 0.58649 5.24709 1.6853C3.60942 2.78412 2.33301 4.3459 1.57928 6.17316C0.825543 8.00043 0.628331 10.0111 1.01258 11.9509C1.39683 13.8907 2.34529 15.6725 3.73801 17.0711C5.13073 18.4696 6.90517 19.422 8.83693 19.8078C10.7687 20.1937 12.771 19.9957 14.5907 19.2388C16.4104 18.4819 17.9657 17.2002 19.0599 15.5557C20.1542 13.9112 20.7382 11.9778 20.7382 10C20.7353 7.34874 19.6852 4.80691 17.8182 2.93218C15.9513 1.05745 13.42 0.00294095 10.7797 0ZM10.7797 17.7778C9.24782 17.7778 7.75031 17.3216 6.47656 16.467C5.20282 15.6123 4.21006 14.3976 3.62382 12.9764C3.03759 11.5552 2.8842 9.99137 3.18306 8.48263C3.48192 6.97389 4.21961 5.58802 5.30284 4.50028C6.38607 3.41254 7.76618 2.67178 9.26866 2.37167C10.7711 2.07156 12.3285 2.22559 13.7438 2.81427C15.1591 3.40295 16.3688 4.39985 17.2199 5.6789C18.071 6.95795 18.5252 8.4617 18.5252 10C18.523 12.0621 17.7063 14.0391 16.2542 15.4973C14.8021 16.9554 12.8333 17.7756 10.7797 17.7778ZM17.0499 10C17.0499 10.2947 16.9333 10.5773 16.7258 10.7857C16.5183 10.994 16.2369 11.1111 15.9434 11.1111H10.7797C10.4863 11.1111 10.2048 10.994 9.99732 10.7857C9.78981 10.5773 9.67323 10.2947 9.67323 10V4.81481C9.67323 4.52013 9.78981 4.23751 9.99732 4.02914C10.2048 3.82077 10.4863 3.7037 10.7797 3.7037C11.0732 3.7037 11.3546 3.82077 11.5621 4.02914C11.7697 4.23751 11.8862 4.52013 11.8862 4.81481V8.88889H15.9434C16.2369 8.88889 16.5183 9.00595 16.7258 9.21432C16.9333 9.4227 17.0499 9.70531 17.0499 10Z"
    fill="currentColor"
  />
</svg>