<svg
  width="21"
  height="20"
  viewBox="0 0 21 20"
  fill="none"
  xmlns="http://www.w3.org/2000/svg"
>
  <path
    d="M20.4908 11.6392C20.3461 11.4936 20.1647 11.3904 19.966 11.3405C19.7674 11.2906 19.5589 11.296 19.3631 11.3561C17.9949 11.7708 16.5404 11.8051 15.1543 11.4554C13.7683 11.1056 12.5027 10.3849 11.4923 9.36993C10.482 8.35497 9.7647 7.08382 9.41692 5.69188C9.06914 4.29993 9.10388 2.83932 9.51743 1.46563C9.57776 1.26888 9.58354 1.05933 9.53414 0.859534C9.48474 0.659735 9.38204 0.477237 9.23707 0.331668C9.09211 0.186099 8.91037 0.0829676 8.7114 0.0333637C8.51242 -0.0162401 8.30375 -0.010439 8.10782 0.0501433C6.05016 0.685218 4.24444 1.95591 2.94771 3.68133C1.81373 5.19485 1.1222 6.99575 0.950725 8.88195C0.779248 10.7681 1.1346 12.665 1.97692 14.3597C2.81924 16.0544 4.11519 17.4799 5.71935 18.4761C7.32351 19.4724 9.17242 20.0001 11.0586 20C13.2607 20.0064 15.4042 19.2874 17.1603 17.9532C18.8777 16.6497 20.1418 14.8355 20.7727 12.7687C20.832 12.5725 20.8371 12.3637 20.7874 12.1648C20.7377 11.9658 20.6352 11.7842 20.4908 11.6392ZM15.8033 16.1442C14.2833 17.2932 12.4011 17.8524 10.5032 17.7186C8.60527 17.5849 6.81929 16.7673 5.47395 15.4164C4.12861 14.0655 3.31443 12.272 3.18127 10.3662C3.0481 8.46035 3.6049 6.57033 4.74919 5.04397C5.35131 4.24418 6.09753 3.56495 6.94912 3.04153C6.9322 3.28311 6.92375 3.52562 6.92375 3.76909C6.92673 6.47112 7.99698 9.06162 9.89967 10.9722C11.8024 12.8829 14.3821 13.9576 17.0729 13.9606C17.3154 13.9606 17.5569 13.9521 17.7975 13.9351C17.2765 14.7904 16.6 15.5398 15.8033 16.1442Z"
    fill="currentColor"
  />
</svg>