<svg
    width="23"
    height="24"
    viewBox="0 0 23 24"
    fill="none"
    xmlns="http://www.w3.org/2000/svg"
  >
    <path
      d="M10.8943 3.48387V2.06452C10.8943 1.78219 11.0059 1.51143 11.2048 1.31179C11.4036 1.11215 11.6732 1 11.9544 1C12.2355 1 12.5051 1.11215 12.704 1.31179C12.9028 1.51143 13.0145 1.78219 13.0145 2.06452V3.48387C13.0145 3.7662 12.9028 4.03696 12.704 4.2366C12.5051 4.43623 12.2355 4.54839 11.9544 4.54839C11.6732 4.54839 11.4036 4.43623 11.2048 4.2366C11.0059 4.03696 10.8943 3.7662 10.8943 3.48387ZM17.9616 12C17.9616 13.1931 17.6093 14.3593 16.9492 15.3513C16.2891 16.3433 15.3509 17.1165 14.2532 17.5731C13.1555 18.0296 11.9477 18.1491 10.7824 17.9163C9.61712 17.6836 8.54673 17.1091 7.7066 16.2655C6.86648 15.4218 6.29435 14.347 6.06256 13.1768C5.83077 12.0067 5.94973 10.7938 6.4044 9.69155C6.85907 8.5893 7.62903 7.64719 8.61692 6.98436C9.6048 6.32153 10.7662 5.96774 11.9544 5.96774C13.5471 5.96939 15.0741 6.60545 16.2003 7.73636C17.3265 8.86728 17.9599 10.4007 17.9616 12ZM15.8414 12C15.8414 11.228 15.6134 10.4734 15.1863 9.83148C14.7592 9.1896 14.1521 8.68932 13.4419 8.39389C12.7316 8.09846 11.95 8.02117 11.196 8.17177C10.442 8.32238 9.74942 8.69413 9.20581 9.24C8.6622 9.78588 8.292 10.4814 8.14201 11.2385C7.99203 11.9957 8.06901 12.7805 8.36321 13.4937C8.65741 14.2069 9.15562 14.8165 9.79484 15.2454C10.4341 15.6743 11.1856 15.9032 11.9544 15.9032C12.9849 15.9021 13.9729 15.4904 14.7016 14.7587C15.4303 14.027 15.8402 13.0348 15.8414 12ZM5.19711 6.72089C5.29572 6.81991 5.41279 6.89846 5.54163 6.95205C5.67047 7.00564 5.80856 7.03322 5.94801 7.03322C6.08747 7.03322 6.22556 7.00564 6.3544 6.95205C6.48324 6.89846 6.60031 6.81991 6.69892 6.72089C6.79752 6.62187 6.87575 6.50431 6.92911 6.37493C6.98248 6.24556 7.00995 6.10689 7.00995 5.96686C7.00995 5.82682 6.98248 5.68815 6.92911 5.55878C6.87575 5.4294 6.79752 5.31184 6.69892 5.21282L5.63882 4.14831C5.43966 3.94832 5.16956 3.83598 4.88791 3.83598C4.60627 3.83598 4.33616 3.94832 4.13701 4.14831C3.93786 4.34829 3.82597 4.61952 3.82597 4.90234C3.82597 5.18516 3.93786 5.45639 4.13701 5.65637L5.19711 6.72089ZM5.19711 17.2773L4.13701 18.3419C4.0384 18.4409 3.96018 18.5584 3.90681 18.6878C3.85344 18.8172 3.82597 18.9559 3.82597 19.0959C3.82597 19.2359 3.85344 19.3746 3.90681 19.504C3.96018 19.6333 4.0384 19.7509 4.13701 19.8499C4.33616 20.0499 4.60627 20.1622 4.88791 20.1622C5.02737 20.1622 5.16546 20.1347 5.2943 20.0811C5.42314 20.0275 5.54021 19.9489 5.63882 19.8499L6.69892 18.7854C6.89807 18.5854 7.00995 18.3142 7.00995 18.0314C7.00995 17.7486 6.89807 17.4773 6.69892 17.2773C6.49976 17.0774 6.22965 16.965 5.94801 16.965C5.66637 16.965 5.39626 17.0774 5.19711 17.2773ZM17.9616 7.03226C18.1008 7.03237 18.2387 7.00493 18.3674 6.9515C18.4961 6.89807 18.6131 6.81971 18.7116 6.72089L19.7717 5.65637C19.8703 5.55735 19.9485 5.4398 20.0019 5.31042C20.0553 5.18104 20.0827 5.04238 20.0827 4.90234C20.0827 4.7623 20.0553 4.62364 20.0019 4.49426C19.9485 4.36488 19.8703 4.24733 19.7717 4.14831C19.6731 4.04929 19.556 3.97074 19.4272 3.91715C19.2983 3.86356 19.1603 3.83598 19.0208 3.83598C18.8813 3.83598 18.7433 3.86356 18.6144 3.91715C18.4856 3.97074 18.3685 4.04929 18.2699 4.14831L17.2098 5.21282C17.0607 5.36171 16.959 5.55178 16.9177 5.75886C16.8764 5.96594 16.8974 6.18066 16.978 6.37572C17.0586 6.57077 17.1952 6.73735 17.3703 6.85426C17.5455 6.97117 17.7513 7.03313 17.9616 7.03226ZM18.7116 17.2791C18.5124 17.0791 18.2423 16.9668 17.9607 16.9668C17.6791 16.9668 17.4089 17.0791 17.2098 17.2791C17.0106 17.4791 16.8988 17.7503 16.8988 18.0331C16.8988 18.316 17.0106 18.5872 17.2098 18.7872L18.2699 19.8517C18.469 20.0517 18.7392 20.164 19.0208 20.164C19.3024 20.164 19.5725 20.0517 19.7717 19.8517C19.9709 19.6517 20.0827 19.3805 20.0827 19.0977C20.0827 18.8148 19.9709 18.5436 19.7717 18.3436L18.7116 17.2791ZM4.53366 12C4.53366 11.7177 4.42197 11.4469 4.22317 11.2473C4.02436 11.0476 3.75472 10.9355 3.47356 10.9355H2.0601C1.77894 10.9355 1.5093 11.0476 1.3105 11.2473C1.11169 11.4469 1 11.7177 1 12C1 12.2823 1.11169 12.5531 1.3105 12.7527C1.5093 12.9524 1.77894 13.0645 2.0601 13.0645H3.47356C3.75472 13.0645 4.02436 12.9524 4.22317 12.7527C4.42197 12.5531 4.53366 12.2823 4.53366 12ZM11.9544 19.4516C11.6732 19.4516 11.4036 19.5638 11.2048 19.7634C11.0059 19.963 10.8943 20.2338 10.8943 20.5161V21.9355C10.8943 22.2178 11.0059 22.4886 11.2048 22.6882C11.4036 22.8878 11.6732 23 11.9544 23C12.2355 23 12.5051 22.8878 12.704 22.6882C12.9028 22.4886 13.0145 22.2178 13.0145 21.9355V20.5161C13.0145 20.2338 12.9028 19.963 12.704 19.7634C12.5051 19.5638 12.2355 19.4516 11.9544 19.4516ZM21.8486 10.9355H20.4351C20.154 10.9355 19.8843 11.0476 19.6855 11.2473C19.4867 11.4469 19.375 11.7177 19.375 12C19.375 12.2823 19.4867 12.5531 19.6855 12.7527C19.8843 12.9524 20.154 13.0645 20.4351 13.0645H21.8486C22.1298 13.0645 22.3994 12.9524 22.5982 12.7527C22.797 12.5531 22.9087 12.2823 22.9087 12C22.9087 11.7177 22.797 11.4469 22.5982 11.2473C22.3994 11.0476 22.1298 10.9355 21.8486 10.9355Z"
      fill="currentColor"
      stroke="currentColor"
      stroke-width="0.2"
    />
  </svg>